# xmcd
#
# Track frame offsets:
#	183
#	26040
#	52660
#	82618
#	115853
#	147763
#	182540
#	208980
#	235668
#	264780
#	294733
#	320140
#
# Disc length: 4598 seconds
#
# Revision: 0
# Processed by: cddbd v1.5.1PL2 Copyright (c) Steve Scherf et al.
# Submitted via: EasyCDDAExtractor 8.2.3.1
#
DISCID=9e11f40c
DTITLE=Various Artist - Hardcore Happiness vol 2 - Just 4 U
DYEAR=1995
DGENRE=Happy Hardcore
TTITLE0=Happy Rollers - On A Roll (Just 4 U Mix)
TTITLE1=Slipmatt - Breaking Free ( Ramos and Sunset Regime Remix)
TTITLE2=Hixxy - Thumper (Just 4 U Mix)
TTITLE3=The Timespan - Hold Me Passionately (Just 4 U Mix)
TTITLE4=Richie Wiz - Song Of Angels
TTITLE5=Jimmy J and Cru-L-T - DJ's In Full Effect (Just 4 U Mix)
TTITLE6=Vinylegroover and C Grayston - Groove Control (Just 4 U Clarkee Remix)
TTITLE7=Supreme and Sunset Regime - Flying With The Rhythm (feat. Gem)
TTITLE8=Midas - Nostalgia
TTITLE9=Love Nation v Justin Time - Music Is Ecstacy (feat. Yemisi) (Just 4 U 
TTITLE9=Mix)
TTITLE10=Billy 'Daniel' Bunter - New Sensation (feat. Gem)
TTITLE11=Citadel Of Kaos - Show Me Love (feat. Dave Jay)
EXTD=
EXTT0=
EXTT1=
EXTT2=
EXTT3=
EXTT4=
EXTT5=
EXTT6=
EXTT7=
EXTT8=
EXTT9=
EXTT10=
EXTT11=
PLAYORDER=
